#N canvas 1 88 381 297 10;
#X text 49 5 complex inverse;
#N canvas 329 100 494 345 META 0;
#X text 12 165 HELP_PATCH_AUTHORS "pd meta" information added by Jonathan
Wilkes for Pd version 0.42.;
#X text 12 105 OUTLET_0 signal;
#X text 12 45 DESCRIPTION complex inverse;
#X text 12 65 INLET_0 signal;
#X text 12 85 INLET_1 signal;
#X text 12 125 OUTLET_1 signal;
#X text 12 145 AUTHOR Tom Schouten <tom@zwizwa.be>;
#X text 12 25 LICENSE GPL v2;
#X text 12 145 comment;
#X text 12 5 KEYWORDS signal abstraction;
#X restore 332 275 pd META;
#X obj 81 56 cinv~;
