#N canvas 66 259 952 611 10;
#X obj 17 186 osc~ 500;
#X msg 83 9 predict 0.5 0.5 \, update 0.25 0.25;
#X msg 83 48 predict -0.0625 0.5625 0.5625 -0.0625 \, update -0.03125
0.28125 0.28125 -0.03125;
#X floatatom 24 134 5 0 0 0 - - -;
#X msg 201 268 mask -1 9 9 -1;
#X obj 67 403 r coef;
#X obj 82 94 s coef;
#X obj 195 461 s coef;
#X msg 201 291 mask 3 -25 150 150 -25 3;
#X msg 216 313 mask -5 49 -245 1225 1225 -245 49 -5;
#X obj 196 163 pack;
#X floatatom 222 132 5 0 0 0 - - -;
#X floatatom 166 120 5 0 0 0 - - -;
#X msg 171 188 coef \$1 \$2;
#X msg 191 244 mask 1 1;
#X msg 228 336 mask 35 -405 2268 -8820 39690 39690 -8820 2268 -405
35;
#X msg 244 370 mask -63 847 -5445 22869 -76230 320166 320166 -76230
22869 -5445 847 -63;
#X msg 245 430 predict 1 0 \, update 0 0.5;
#X obj 36 155 * 187.5;
#X msg 469 500 mask 0 0 0 35 140 -70 28 -5;
#X msg 469 476 mask 7 -45 126 -210 315 63 0 0 0 0;
#X msg 469 452 mask -21 154 -495 924 -1155 1386 231 0 0 0 0 0;
#N canvas 0 0 450 300 (subpatch) 0;
#X array \$0-scope 256 float 0;
#X coords 0 1 255 -1 200 140 1 0 0;
#X restore 718 26 graph;
#X text 61 289 print out coefs;
#X msg 100 308 print;
#X text 315 100 dwt~ performs a discrete wavelet transform;
#X text 315 114 idwt~ performs the inverse transform;
#X text 309 229 mask sets the predict mask \, and uses the corresponding
update mask;
#X text 266 187 coef sets half of a symmetric predict mask;
#X text 243 410 predict and update masks can be specified explicitly
;
#X text 433 431 haar wavelet;
#X msg 672 313 even \$1;
#X floatatom 672 291 5 0 0 0 - - -;
#X text 570 258 even <n> is the order symmetric interpolating biorthogonal
wavelet with n vanishing moments.;
#N canvas 379 254 494 344 META 0;
#X text 12 155 HELP_PATCH_AUTHORS "pd meta" information added by Jonathan
Wilkes for Pd version 0.42.;
#X text 12 25 KEYWORDS signal;
#X text 12 65 DESCRIPTION dwt~ performas a descrete wavelet transform/
idwt~ performs the inverse transform;
#X text 12 95 INLET_0 signal print mask predict update even;
#X text 12 5 NAME dwt~ idwt~;
#X text 12 115 OUTLET_0 signal;
#X text 12 45 LICENSE GPL v2;
#X text 12 135 AUTHOR Tom Schouten <tom@zwizwa.be>;
#X restore 884 589 pd META;
#X obj 27 465 creb/dwt~ 1;
#X obj 26 567 tabsend~ \$0-scope;
#X connect 0 0 35 0;
#X connect 1 0 6 0;
#X connect 2 0 6 0;
#X connect 3 0 18 0;
#X connect 4 0 7 0;
#X connect 5 0 35 0;
#X connect 8 0 7 0;
#X connect 9 0 7 0;
#X connect 10 0 13 0;
#X connect 11 0 10 1;
#X connect 12 0 10 0;
#X connect 13 0 7 0;
#X connect 14 0 7 0;
#X connect 15 0 7 0;
#X connect 16 0 7 0;
#X connect 17 0 7 0;
#X connect 18 0 0 0;
#X connect 19 0 7 0;
#X connect 20 0 7 0;
#X connect 21 0 7 0;
#X connect 24 0 7 0;
#X connect 31 0 7 0;
#X connect 32 0 31 0;
#X connect 35 0 36 0;
