#N canvas 344 306 450 300 12;
#X obj 108 112 creb/nfft~;
#N canvas 379 254 494 344 META 0;
#X text 12 185 HELP_PATCH_AUTHORS "pd meta" information added by Jonathan
Wilkes for Pd version 0.42.;
#X text 12 85 INLET_0 signal;
#X text 12 105 INLET_1 signal;
#X text 12 125 OUTLET_0 signal;
#X text 12 145 OUTLET_1 signal;
#X text 12 165 AUTHOR Tom Schouten <tom@zwizwa.be>;
#X text 12 45 LICENSE GPL v2;
#X text 12 25 KEYWORDS signal needs_work needs_work (example);
#X text 12 5 NAME nfft~;
#X text 12 65 DESCRIPTION mayer fft;
#X restore 391 274 pd META;
