#N canvas 1 88 450 300 10;
#X text 59 21 normalize complex number to unit magnitude;
#N canvas 198 88 494 353 META 0;
#X text 12 165 HELP_PATCH_AUTHORS "pd meta" information added by Jonathan
Wilkes for Pd version 0.42.;
#X text 12 45 DESCRIPTION normalize complex number to unit magnitude
;
#X text 12 65 INLET_0 signal;
#X text 12 85 INLET_1 signal;
#X text 12 105 OUTLET_0 signal;
#X text 12 125 OUTLET_1 signal;
#X text 12 25 LICENSE GPL v2;
#X text 12 145 AUTHOR Tom Schouten <tom@zwizwa.be>;
#X text 12 5 KEYWORDS signal abstraction;
#X restore 398 277 pd META;
#X obj 183 126 ucnorm~;
